<?xml version="1.0" encoding="utf-8"?>
<!DOCTYPE svg PUBLIC "-//W3C//DTD SVG 1.1//EN" "http://www.w3.org/Graphics/SVG/1.1/DTD/svg11.dtd">
<svg id="scene"
     xmlns="http://www.w3.org/2000/svg"
     xmlns:xlink="http://www.w3.org/1999/xlink">

    <!-- centre the balloon with a translate -->
    <path id="balloon_path"
          transform="translate(-75, -70)"
          d="M110.345,28.431C96.876,13.409,75.112,15.188,72.703,15.136c0,0-21.93-1.554-35.57,11.913
             c-13.641,13.469-7.425,32.118-1.727,41.788c2.945,4.995,10.704,14.09,16.761,22.21c5.663,7.588,9.744,15.689,9.744,15.689
             l0.777,4.921h1.298l2.062,10.373h-2.123c-0.213,0-0.387,0.309-0.387,0.692c0,0.383,0.173,0.693,0.387,0.693h1.637
             c-0.202,0.35-0.32,0.753-0.32,1.186v5.673c0,1.311,1.063,2.375,2.375,2.375h9.894c1.313,0,2.374-1.064,2.374-2.375v-5.673
             c0-0.433-0.117-0.836-0.32-1.186h1.263c0.215,0,0.388-0.311,0.388-0.693c0-0.384-0.173-0.692-0.388-0.692h-1.53l2.063-10.373h1.531
             l0.777-4.748l9.264-15.722l17.414-22.524C110.345,68.663,126.034,45.933,110.345,28.431z M77.42,111.657l-1.123,10.373h-7.056
             l-1.126-10.373H77.42z M64.676,111.657h2.749l1.125,10.373h-1.812L64.676,111.657z M78.605,122.03h-1.618l1.125-10.373h2.556
             L78.605,122.03z"/>
</svg>
